<?xml version="1.0" encoding="UTF-8"?>
<svg width="16px" height="16px" viewBox="0 0 16 16" version="1.1" xmlns="http://www.w3.org/2000/svg"
    xmlns:xlink="http://www.w3.org/1999/xlink">
    <defs>
        <path
            d="M8,7.19628685 L1.9701676,1.16645444 C1.74822834,0.944515185 1.3883937,0.944515185 1.16645444,1.16645444 C0.944515185,1.3883937 0.944515185,1.74822834 1.16645444,1.9701676 L7.19628685,8 L1.16645444,14.0298324 C0.944515185,14.2517717 0.944515185,14.6116063 1.16645444,14.8335456 C1.3883937,15.0554848 1.74822834,15.0554848 1.9701676,14.8335456 L8,8.80371315 L14.0298324,14.8335456 C14.2517717,15.0554848 14.6116063,15.0554848 14.8335456,14.8335456 C15.0554848,14.6116063 15.0554848,14.2517717 14.8335456,14.0298324 L8.80371315,8 L14.8335456,1.9701676 C15.0554848,1.74822834 15.0554848,1.3883937 14.8335456,1.16645444 C14.6116063,0.944515185 14.2517717,0.944515185 14.0298324,1.16645444 L8,7.19628685 Z"
            id="path-1"></path>
    </defs>
    <g id="Icons" stroke="none" stroke-width="1" fill="none" fill-rule="evenodd">
        <g id="icons/icon-close">
            <rect id="fill" x="0" y="0" width="16" height="16"></rect>
            <mask id="mask-2" fill="white">
                <use xlink:href="#path-1"></use>
            </mask>
            <use id="Combined-Shape" fill="#979797" fill-rule="nonzero" xlink:href="#path-1"></use>
            <g id="colours" mask="url(#mask-2)" fill="#000000">
                <g id="colors/black100">
                    <rect x="0" y="0" width="16" height="16"></rect>
                </g>
            </g>
        </g>
    </g>
</svg>